# xmcd
#
# Track frame offsets: 
#        150
#        22534
#        37585
#        57998
#        80371
#        95414
#
# Disc length: 1540 seconds
#
# Revision: 0
# Processed by: cddbd v1.5.1PL2 Copyright (c) Steve Scherf et al.
# Submitted via: ExactAudioCopy v0.95a5
#
DISCID=31060206
DTITLE=HINOIteam - NOWandFOREVER
DYEAR=2006
DGENRE=JPop
TTITLE0=NOW and FOREVER
TTITLE1=SUMMERTIME
TTITLE2=I'M GONNA CARRY ON
TTITLE3=NOW and FOREVER<Instrumental>
TTITLE4=SUMMERTIME<Instrumental>
TTITLE5=I'M GONNA CARRY ON<Instrumental>
EXTD=
EXTT0=
EXTT1=
EXTT2=
EXTT3=
EXTT4=
EXTT5=
PLAYORDER=
